<?xml version="1.0" encoding="utf-8"?>
<!-- Generator: Adobe Illustrator 16.0.0, SVG Export Plug-In . SVG Version: 6.00 Build 0)  -->
<!DOCTYPE svg PUBLIC "-//W3C//DTD SVG 1.1//EN" "http://www.w3.org/Graphics/SVG/1.1/DTD/svg11.dtd">
<svg version="1.1" id="Layer_1" xmlns="http://www.w3.org/2000/svg" xmlns:xlink="http://www.w3.org/1999/xlink" x="0px" y="0px"
	 width="425.2px" height="255.12px" viewBox="0 0 425.2 255.12" enable-background="new 0 0 425.2 255.12" xml:space="preserve">
<g>
	<path fill="#1F365E" d="M108.741,196.711h0.503v0.56H91.421v-0.56h0.503c0.819,0,1.424-0.251,1.815-0.753
		c0.391-0.504,0.586-0.979,0.586-1.426c0-0.446-0.093-0.894-0.279-1.342l-2.737-6.87H78.236l-2.905,6.87
		c-0.188,0.485-0.279,0.942-0.279,1.371c0,0.428,0.205,0.893,0.614,1.396c0.41,0.502,1.024,0.753,1.844,0.753h0.447v0.56H66v-0.56
		h0.503c0.858,0,1.711-0.26,2.569-0.78c0.856-0.522,1.564-1.305,2.124-2.348l12.905-29.22c1.75-3.688,2.684-6.127,2.793-7.318h0.503
		l16.594,36.426c0.559,1.081,1.266,1.891,2.124,2.431C106.972,196.441,107.846,196.711,108.741,196.711z M79.186,183.974H90.36
		l-5.419-13.744L79.186,183.974z"/>
	<path fill="#1F365E" d="M109.03,197.271v-0.446h0.537c0.686,0,1.259-0.225,1.721-0.673c0.462-0.445,0.693-0.997,0.693-1.652v-21.23
		c0-0.655-0.238-1.214-0.715-1.676c-0.478-0.461-1.043-0.693-1.699-0.693h-0.537v-0.446h12.426v0.446h-0.537
		c-0.685,0-1.267,0.225-1.743,0.671c-0.477,0.447-0.715,1.014-0.715,1.698v22.215h5.363c1.847-0.03,3.412-0.605,4.693-1.722
		c1.281-1.117,2.22-2.688,2.817-4.716h0.49l-1.742,8.225H109.03z"/>
	<path fill="#1F365E" d="M154.174,197.271h-21.052v-0.446h0.537c0.685,0,1.259-0.225,1.721-0.673
		c0.461-0.445,0.707-0.997,0.737-1.652v-21.274c-0.03-0.655-0.276-1.207-0.737-1.654c-0.462-0.446-1.036-0.671-1.721-0.671h-0.537
		v-0.446h15.733c0.805,0,1.683-0.074,2.637-0.224c0.954-0.148,1.624-0.298,2.012-0.447v7.106h-0.448v-0.401
		c0-1.312-0.358-2.339-1.073-3.085c-0.715-0.745-1.713-1.132-2.995-1.162h-6.435v10.862h5.094c1.013-0.03,1.833-0.373,2.458-1.029
		c0.626-0.654,0.939-1.489,0.939-2.503v-0.312h0.447v9.476h-0.447v-0.313c0-1.4-0.522-2.413-1.564-3.039
		c-0.536-0.327-1.133-0.491-1.788-0.491h-5.14v10.594h5.363c1.847-0.03,3.418-0.605,4.716-1.722
		c1.295-1.117,2.241-2.688,2.838-4.716h0.401L154.174,197.271z"/>
	<path fill="#1F365E" d="M186.757,197.271h-13.855v-0.446h0.49c0.567,0,0.977-0.194,1.23-0.582c0.253-0.387,0.38-0.707,0.38-0.961
		c0-0.253-0.075-0.499-0.224-0.737l-5.095-7.866l-5.721,7.866c-0.178,0.269-0.269,0.53-0.269,0.782c0,0.254,0.126,0.566,0.381,0.938
		c0.253,0.372,0.663,0.56,1.229,0.56h0.491v0.446h-9.833v-0.446h0.536c1.43,0,2.697-0.656,3.798-1.967l7.957-10.46l-7.42-11.531
		c-0.447-0.596-1.013-1.08-1.699-1.454c-0.685-0.37-1.4-0.558-2.145-0.558h-0.536v-0.446h13.766v0.446h-0.492
		c-0.567,0-0.977,0.195-1.23,0.581c-0.253,0.389-0.378,0.709-0.378,0.962c0,0.254,0.074,0.499,0.224,0.737l4.736,7.331l4.782-7.331
		c0.15-0.238,0.224-0.483,0.224-0.737c0-0.253-0.12-0.573-0.356-0.962c-0.24-0.386-0.643-0.581-1.208-0.581h-0.491v-0.446h9.788
		v0.446h-0.581c-0.745,0-1.453,0.188-2.123,0.558c-0.671,0.374-1.23,0.858-1.676,1.454l-6.839,9.923l7.732,11.979
		c0.595,0.833,1.267,1.383,2.011,1.652c0.745,0.269,1.37,0.403,1.876,0.403h0.537V197.271z"/>
	<path fill="#1F365E" d="M215.585,196.824h0.357v0.446h-13.14v-0.446h0.357c0.595,0,1.028-0.18,1.295-0.538
		c0.269-0.355,0.403-0.685,0.403-0.981c0-0.299-0.06-0.612-0.179-0.94l-1.743-4.111h-9.475l-1.789,4.157
		c-0.119,0.297-0.178,0.603-0.178,0.916c0,0.312,0.141,0.641,0.424,0.982c0.284,0.344,0.724,0.516,1.319,0.516h0.357v0.446h-8.939
		v-0.446h0.358c0.626,0,1.25-0.194,1.877-0.582c0.625-0.387,1.131-0.969,1.52-1.743l9.252-19.844c1.31-2.95,1.995-4.769,2.055-5.453
		h0.402l11.979,25.118c0.387,0.865,0.901,1.497,1.542,1.898C214.28,196.622,214.93,196.824,215.585,196.824z M194.221,188.51h7.956
		l-3.932-9.341L194.221,188.51z"/>
	<path fill="#1F365E" d="M235.967,170.453h12.56v0.446h-0.761c-0.686,0-1.258,0.209-1.721,0.626
		c-0.461,0.417-0.709,0.953-0.737,1.609v19.532c0,1.848,0.119,3.367,0.357,4.559l0.09,0.626h-0.401l-20.516-18.103v14.795
		c0.028,0.656,0.273,1.2,0.736,1.633c0.461,0.43,1.035,0.647,1.722,0.647h0.76v0.446h-12.515v-0.446h0.715
		c0.685,0,1.266-0.218,1.742-0.647c0.478-0.433,0.716-0.977,0.716-1.633v-19.666c0-1.788-0.12-3.263-0.357-4.425l-0.09-0.626
		l0.402,0.046l20.471,18.011V173.18c0-0.655-0.23-1.199-0.693-1.633c-0.461-0.431-1.035-0.647-1.722-0.647h-0.758V170.453z"/>
	<path fill="#1F365E" d="M277.264,174.006c2.712,2.37,4.068,5.654,4.068,9.856c0,4.201-1.356,7.486-4.068,9.854
		c-2.71,2.368-6.465,3.554-11.261,3.554h-15.109v-0.446h0.582c0.685,0,1.266-0.239,1.743-0.716c0.476-0.476,0.73-1.042,0.761-1.698
		v-21.186c-0.062-0.655-0.328-1.207-0.806-1.654c-0.478-0.446-1.059-0.671-1.743-0.671h-0.537v-0.446h15.109
		C270.799,170.453,274.554,171.638,277.264,174.006z M265.465,195.483c2.8,0,5.013-1.028,6.638-3.085
		c1.623-2.056,2.435-4.901,2.435-8.536s-0.812-6.489-2.435-8.56c-1.625-2.071-3.838-3.107-6.638-3.107h-5.05v23.288H265.465z"/>
	<path fill="#1F365E" d="M293.101,172.285h-1.43v22.17c0,0.715,0.247,1.289,0.738,1.722c0.492,0.43,1.051,0.647,1.677,0.647h0.491
		v0.446h-12.293v-0.446h0.537c0.656,0,1.215-0.225,1.676-0.673c0.463-0.445,0.693-0.997,0.693-1.652v-21.274
		c0-0.655-0.23-1.207-0.693-1.654c-0.461-0.446-1.005-0.671-1.629-0.671h-0.584v-0.446h13.723c2.682,0,4.931,0.521,6.75,1.564
		c2.027,1.162,3.038,3.083,3.038,5.765c0,1.729-0.521,3.286-1.563,4.672c-1.044,1.386-2.592,2.228-4.647,2.524
		c0.803,0.269,1.601,0.775,2.39,1.521s1.424,1.506,1.898,2.28c0.954,1.696,1.952,3.254,2.996,4.67
		c1.042,1.415,1.884,2.331,2.524,2.748c0.643,0.418,1.424,0.627,2.348,0.627v0.446h-3.755c-2.474,0-4.372-0.297-5.697-0.895
		c-1.328-0.596-2.511-1.728-3.555-3.396c-1.609-2.562-2.608-4.588-2.994-6.079c-0.358-0.894-0.783-1.563-1.274-2.011
		s-0.96-0.699-1.407-0.76v-0.357h1.116c2.532-0.029,4.082-1.521,4.649-4.469c0.118-0.448,0.18-0.836,0.18-1.163
		s-0.017-0.781-0.045-1.364c-0.031-0.58-0.219-1.235-0.56-1.966c-0.342-0.729-0.782-1.258-1.319-1.586
		c-0.924-0.567-1.878-0.865-2.858-0.895C293.892,172.302,293.519,172.285,293.101,172.285z"/>
	<path fill="#1F365E" d="M311.338,196.824h0.536c0.716,0,1.326-0.23,1.834-0.693c0.506-0.462,0.758-1.021,0.758-1.676v-21.187
		c0-0.655-0.252-1.214-0.758-1.676c-0.508-0.461-1.118-0.693-1.834-0.693h-0.536v-0.446h12.694v0.446h-0.536
		c-0.686,0-1.282,0.225-1.788,0.671c-0.508,0.447-0.775,0.999-0.806,1.654v21.23c0.03,0.686,0.298,1.251,0.806,1.696
		c0.506,0.448,1.103,0.673,1.788,0.673h0.536v0.446h-12.694V196.824z"/>
	<path fill="#1F365E" d="M362.761,196.711h0.446v0.56H346.78v-0.56h0.449c0.742,0,1.284-0.223,1.619-0.669
		c0.334-0.447,0.504-0.856,0.504-1.229s-0.076-0.765-0.225-1.174l-2.18-5.14h-11.845l-2.234,5.196
		c-0.149,0.372-0.223,0.754-0.223,1.146c0,0.391,0.178,0.801,0.53,1.229c0.354,0.428,0.903,0.642,1.647,0.642h0.446v0.56h-11.173
		v-0.56h0.446c0.783,0,1.564-0.241,2.348-0.726c0.781-0.483,1.415-1.209,1.9-2.179L340.356,169c1.638-3.688,2.494-5.959,2.57-6.816
		h0.503l14.973,31.399c0.483,1.08,1.126,1.871,1.927,2.375C361.131,196.46,361.94,196.711,362.761,196.711z M336.054,186.32H346
		l-4.917-11.678L336.054,186.32z"/>
</g>
<path fill="none" stroke="#2F4F7D" stroke-width="2" stroke-miterlimit="10" d="M202.253,81.953"/>
<g>
	<path fill="#AA9B85" d="M194.242,148.58c0,0-3.37-0.862-4.877-0.862c-1.507,0-2.589,0-2.589,0v-86.71c0,0,0.471,0.638,3.021,0.646
		c2.476,0.009,4.445-1.803,4.445-1.803V148.58z"/>
	<polygon fill="#BFB095" points="245.882,140.564 195.344,150.667 195.344,58.625 245.882,68.727 	"/>
	<line fill="none" stroke="#CBBFA8" stroke-width="3" stroke-miterlimit="10" x1="194.625" y1="58.634" x2="194.625" y2="150.675"/>
	<line fill="none" stroke="#CBBFA8" stroke-width="3" stroke-miterlimit="10" x1="186.392" y1="149.813" x2="186.392" y2="59.495"/>
	<g>
		
			<line fill="none" stroke="#FFFFFF" stroke-width="2" stroke-miterlimit="10" x1="205.437" y1="108.244" x2="205.437" y2="57.269"/>
		
			<ellipse fill="#FFFFFF" stroke="#FFFFFF" stroke-width="2" stroke-miterlimit="10" cx="205.437" cy="108.244" rx="1.094" ry="1.1"/>
	</g>
	<g>
		
			<line fill="none" stroke="#FFFFFF" stroke-width="2" stroke-miterlimit="10" x1="225.937" y1="124.876" x2="225.937" y2="147.425"/>
		
			<ellipse fill="#FFFFFF" stroke="#FFFFFF" stroke-width="2" stroke-miterlimit="10" cx="225.936" cy="124.876" rx="1.095" ry="1.1"/>
	</g>
	<g>
		<line fill="none" stroke="#FFFFFF" stroke-width="2" stroke-miterlimit="10" x1="235.808" y1="94.987" x2="235.808" y2="65.548"/>
		
			<ellipse fill="#FFFFFF" stroke="#FFFFFF" stroke-width="2" stroke-miterlimit="10" cx="235.807" cy="94.987" rx="1.095" ry="1.1"/>
	</g>
	<g>
		<polyline fill="none" stroke="#FFFFFF" stroke-width="2" stroke-miterlimit="10" points="236.038,132.881 236.038,114.26 
			225.937,104.832 225.937,62.548 		"/>
		<circle fill="#FFFFFF" stroke="#FFFFFF" stroke-width="2" stroke-miterlimit="10" cx="236.038" cy="132.881" r="1.095"/>
	</g>
	<g>
		<polyline fill="none" stroke="#FFFFFF" stroke-width="2" stroke-miterlimit="10" points="205.437,141.479 205.437,128.49 
			215.539,116.255 215.539,58.351 		"/>
		
			<ellipse fill="#FFFFFF" stroke="#FFFFFF" stroke-width="2" stroke-miterlimit="10" cx="205.437" cy="141.479" rx="1.094" ry="1.1"/>
	</g>
</g>
</svg>
