<?xml version="1.0" encoding="utf-8"?>
<!-- Generator: Adobe Illustrator 16.0.0, SVG Export Plug-In . SVG Version: 6.00 Build 0)  -->
<!DOCTYPE svg PUBLIC "-//W3C//DTD SVG 1.1//EN" "http://www.w3.org/Graphics/SVG/1.1/DTD/svg11.dtd">
<svg version="1.1" id="Layer_1" xmlns="http://www.w3.org/2000/svg" xmlns:xlink="http://www.w3.org/1999/xlink" x="0px" y="0px"
	 width="425.2px" height="255.12px" viewBox="0 0 425.2 255.12" enable-background="new 0 0 425.2 255.12" xml:space="preserve">
<path fill="none" stroke="#2F4F7D" stroke-width="2" stroke-miterlimit="10" d="M52.361,118.948"/>
<g>
	<path fill="#1F365E" d="M150.619,174.963h0.482v0.535h-17.069v-0.535h0.481c0.784,0,1.364-0.24,1.739-0.721
		c0.375-0.482,0.562-0.938,0.562-1.365s-0.089-0.857-0.268-1.285l-2.622-6.58h-12.521l-2.782,6.58
		c-0.18,0.465-0.268,0.902-0.268,1.312s0.196,0.855,0.588,1.338c0.393,0.48,0.98,0.721,1.766,0.721h0.428v0.535h-11.451v-0.535
		h0.482c0.822,0,1.639-0.248,2.461-0.748c0.82-0.5,1.499-1.248,2.034-2.248l12.36-27.984c1.676-3.533,2.57-5.869,2.675-7.01h0.482
		l15.893,34.887c0.535,1.035,1.212,1.811,2.034,2.328C148.924,174.705,149.762,174.963,150.619,174.963z M122.312,162.764h10.702
		l-5.19-13.164L122.312,162.764z"/>
	<path fill="#1F365E" d="M150.896,175.498v-0.428h0.514c0.656,0,1.206-0.215,1.648-0.643c0.443-0.428,0.664-0.955,0.664-1.584
		V152.51c0-0.627-0.229-1.162-0.685-1.604c-0.458-0.441-0.999-0.664-1.627-0.664h-0.514v-0.428h11.901v0.428h-0.514
		c-0.656,0-1.213,0.215-1.669,0.643c-0.457,0.428-0.685,0.971-0.685,1.625v21.277h5.137c1.769-0.029,3.268-0.58,4.495-1.648
		c1.227-1.07,2.126-2.576,2.698-4.518h0.47l-1.668,7.877H150.896z"/>
	<path fill="#1F365E" d="M194.132,175.498H173.97v-0.428h0.514c0.656,0,1.206-0.215,1.648-0.643
		c0.442-0.428,0.677-0.955,0.706-1.584v-20.375c-0.029-0.627-0.264-1.156-0.706-1.584c-0.443-0.428-0.992-0.643-1.648-0.643h-0.514
		v-0.428h15.068c0.771,0,1.612-0.072,2.525-0.215s1.555-0.285,1.927-0.428v6.807h-0.429v-0.385c0-1.256-0.343-2.24-1.028-2.955
		c-0.685-0.713-1.641-1.084-2.868-1.113h-6.163v10.404h4.879c0.97-0.029,1.755-0.357,2.354-0.986c0.6-0.627,0.9-1.426,0.9-2.396
		v-0.301h0.428v9.076h-0.428v-0.301c0-1.34-0.5-2.311-1.499-2.91c-0.513-0.312-1.085-0.471-1.712-0.471h-4.922v10.146h5.137
		c1.769-0.029,3.274-0.58,4.517-1.648c1.241-1.07,2.146-2.576,2.718-4.518h0.384L194.132,175.498z"/>
	<path fill="#1F365E" d="M225.339,175.498h-13.27v-0.428h0.47c0.543,0,0.936-0.186,1.178-0.557s0.363-0.678,0.363-0.92
		s-0.071-0.479-0.214-0.707l-4.88-7.533l-5.479,7.533c-0.171,0.258-0.258,0.508-0.258,0.75s0.121,0.543,0.365,0.898
		c0.243,0.357,0.634,0.535,1.177,0.535h0.47v0.428h-9.417v-0.428h0.513c1.37,0,2.583-0.627,3.638-1.883l7.621-10.018l-7.106-11.045
		c-0.428-0.57-0.97-1.033-1.627-1.393c-0.656-0.354-1.341-0.533-2.054-0.533h-0.513v-0.428H209.5v0.428h-0.471
		c-0.543,0-0.936,0.186-1.178,0.557c-0.242,0.371-0.362,0.678-0.362,0.92c0,0.244,0.07,0.479,0.214,0.707l4.537,7.021l4.581-7.021
		c0.143-0.229,0.214-0.463,0.214-0.707c0-0.242-0.114-0.549-0.341-0.92c-0.23-0.371-0.616-0.557-1.158-0.557h-0.47v-0.428h9.374
		v0.428h-0.556c-0.714,0-1.392,0.18-2.033,0.533c-0.644,0.359-1.179,0.822-1.604,1.393l-6.551,9.504l7.406,11.473
		c0.57,0.799,1.213,1.326,1.926,1.584c0.713,0.256,1.312,0.385,1.797,0.385h0.515V175.498z"/>
	<path fill="#1F365E" d="M252.95,175.07h0.342v0.428h-12.585v-0.428h0.342c0.57,0,0.984-0.172,1.241-0.514
		c0.258-0.342,0.386-0.656,0.386-0.941s-0.057-0.586-0.172-0.9l-1.669-3.938h-9.075l-1.713,3.982
		c-0.113,0.283-0.17,0.576-0.17,0.877c0,0.299,0.135,0.613,0.406,0.941s0.692,0.492,1.263,0.492h0.343v0.428h-8.562v-0.428h0.344
		c0.6,0,1.197-0.186,1.797-0.557s1.084-0.928,1.456-1.67l8.861-19.006c1.255-2.824,1.911-4.566,1.968-5.223h0.386l11.473,24.059
		c0.371,0.828,0.863,1.434,1.477,1.818S252.321,175.07,252.95,175.07z M232.488,167.107h7.619l-3.766-8.945L232.488,167.107z"/>
	<path fill="#1F365E" d="M272.47,149.814h12.029v0.428h-0.729c-0.656,0-1.205,0.199-1.648,0.6c-0.441,0.398-0.679,0.912-0.706,1.541
		v18.707c0,1.77,0.114,3.225,0.343,4.365l0.086,0.6h-0.385l-19.648-17.338v14.17c0.027,0.629,0.262,1.15,0.705,1.564
		c0.441,0.412,0.991,0.619,1.648,0.619h0.729v0.428h-11.986v-0.428h0.685c0.655,0,1.212-0.207,1.669-0.619
		c0.457-0.414,0.686-0.936,0.686-1.564v-18.834c0-1.713-0.115-3.125-0.343-4.238l-0.086-0.6l0.386,0.043l19.605,17.25v-14.082
		c0-0.627-0.221-1.148-0.664-1.564c-0.441-0.412-0.991-0.619-1.648-0.619h-0.727V149.814z"/>
	<path fill="#1F365E" d="M312.022,153.217c2.598,2.27,3.896,5.416,3.896,9.439s-1.299,7.17-3.896,9.439
		c-2.596,2.268-6.191,3.402-10.785,3.402h-14.471v-0.428h0.557c0.656,0,1.213-0.229,1.67-0.686c0.455-0.455,0.699-0.998,0.729-1.625
		v-20.291c-0.059-0.627-0.314-1.156-0.771-1.584s-1.014-0.643-1.67-0.643h-0.514v-0.428h14.471
		C305.831,149.814,309.427,150.949,312.022,153.217z M300.722,173.787c2.682,0,4.801-0.984,6.357-2.955
		c1.555-1.969,2.332-4.693,2.332-8.176c0-3.48-0.777-6.215-2.332-8.197c-1.557-1.984-3.676-2.977-6.357-2.977h-4.836v22.305H300.722
		z"/>
	<path fill="#1F365E" d="M327.19,151.568h-1.369v21.234c0,0.684,0.236,1.234,0.707,1.648c0.471,0.412,1.006,0.619,1.605,0.619h0.471
		v0.428h-11.773v-0.428h0.514c0.629,0,1.164-0.215,1.605-0.643c0.443-0.428,0.664-0.955,0.664-1.584v-20.375
		c0-0.627-0.221-1.156-0.664-1.584c-0.441-0.428-0.963-0.643-1.561-0.643h-0.559v-0.428h13.143c2.568,0,4.723,0.5,6.465,1.498
		c1.941,1.113,2.91,2.953,2.91,5.521c0,1.656-0.5,3.146-1.498,4.475c-1,1.326-2.482,2.133-4.451,2.418
		c0.77,0.256,1.533,0.742,2.289,1.455c0.756,0.715,1.363,1.443,1.818,2.184c0.914,1.625,1.869,3.117,2.869,4.473
		c0.998,1.355,1.805,2.234,2.418,2.633c0.615,0.4,1.363,0.6,2.248,0.6v0.428h-3.596c-2.369,0-4.188-0.283-5.457-0.855
		c-1.271-0.57-2.404-1.654-3.404-3.254c-1.541-2.453-2.498-4.395-2.867-5.822c-0.344-0.855-0.75-1.498-1.221-1.926
		s-0.92-0.67-1.348-0.727v-0.344h1.068c2.426-0.027,3.91-1.455,4.453-4.279c0.113-0.43,0.172-0.801,0.172-1.113
		c0-0.314-0.016-0.75-0.043-1.307c-0.029-0.557-0.209-1.184-0.535-1.883c-0.328-0.699-0.75-1.205-1.264-1.52
		c-0.885-0.543-1.799-0.828-2.738-0.857C327.948,151.584,327.591,151.568,327.19,151.568z"/>
	<path fill="#1F365E" d="M344.657,175.07h0.514c0.686,0,1.27-0.221,1.756-0.664c0.484-0.441,0.727-0.977,0.727-1.604V152.51
		c0-0.627-0.242-1.162-0.727-1.604c-0.486-0.441-1.07-0.664-1.756-0.664h-0.514v-0.428h12.158v0.428h-0.514
		c-0.656,0-1.229,0.215-1.713,0.643c-0.486,0.428-0.742,0.957-0.771,1.584v20.334c0.029,0.656,0.285,1.197,0.771,1.625
		c0.484,0.428,1.057,0.643,1.713,0.643h0.514v0.428h-12.158V175.07z"/>
	<path fill="#1F365E" d="M393.907,174.963h0.428v0.535h-15.732v-0.535h0.43c0.711,0,1.23-0.213,1.551-0.641s0.482-0.82,0.482-1.178
		s-0.072-0.732-0.215-1.125l-2.088-4.922h-11.344l-2.141,4.977c-0.143,0.357-0.213,0.723-0.213,1.098
		c0,0.373,0.17,0.768,0.508,1.176c0.34,0.41,0.865,0.615,1.578,0.615h0.428v0.535h-10.701v-0.535h0.428
		c0.75,0,1.498-0.23,2.248-0.695c0.748-0.463,1.355-1.158,1.82-2.086l11.076-23.76c1.568-3.531,2.389-5.707,2.461-6.527h0.482
		l14.34,30.072c0.463,1.035,1.078,1.793,1.846,2.275C392.347,174.723,393.122,174.963,393.907,174.963z M368.329,165.012h9.525
		l-4.709-11.186L368.329,165.012z"/>
</g>
<path fill="none" stroke="#2F4F7D" stroke-width="2" stroke-miterlimit="10" d="M216.515-53.213"/>
<g>
	<path fill="#AA9B85" d="M50.842,184.617c0,0-3.228-0.824-4.671-0.824s-2.479,0-2.479,0v-83.047c0,0,0.451,0.61,2.893,0.618
		c2.372,0.009,4.258-1.727,4.258-1.727V184.617z"/>
	<polygon fill="#BFB095" points="100.3,176.941 51.897,186.617 51.897,98.463 100.3,108.138 	"/>
	<line fill="none" stroke="#CBBFA8" stroke-width="3" stroke-miterlimit="10" x1="51.209" y1="98.472" x2="51.209" y2="186.625"/>
	<line fill="none" stroke="#CBBFA8" stroke-width="3" stroke-miterlimit="10" x1="43.323" y1="185.799" x2="43.323" y2="99.296"/>
	<g>
		<line fill="none" stroke="#FFFFFF" stroke-width="2" stroke-miterlimit="10" x1="61.563" y1="145.986" x2="61.563" y2="97.165"/>
		
			<ellipse fill="#FFFFFF" stroke="#FFFFFF" stroke-width="2" stroke-miterlimit="10" cx="61.564" cy="145.986" rx="1.048" ry="1.055"/>
	</g>
	<g>
		<line fill="none" stroke="#FFFFFF" stroke-width="2" stroke-miterlimit="10" x1="81.197" y1="161.916" x2="81.197" y2="183.512"/>
		<circle fill="#FFFFFF" stroke="#FFFFFF" stroke-width="2" stroke-miterlimit="10" cx="81.197" cy="161.916" r="1.048"/>
	</g>
	<g>
		<line fill="none" stroke="#FFFFFF" stroke-width="2" stroke-miterlimit="10" x1="90.651" y1="133.289" x2="90.651" y2="105.094"/>
		<circle fill="#FFFFFF" stroke="#FFFFFF" stroke-width="2" stroke-miterlimit="10" cx="90.651" cy="133.289" r="1.048"/>
	</g>
	<g>
		<polyline fill="none" stroke="#FFFFFF" stroke-width="2" stroke-miterlimit="10" points="90.872,169.582 90.872,151.748 
			81.197,142.719 81.197,102.22 		"/>
		<circle fill="#FFFFFF" stroke="#FFFFFF" stroke-width="2" stroke-miterlimit="10" cx="90.873" cy="169.582" r="1.048"/>
	</g>
	<g>
		<polyline fill="none" stroke="#FFFFFF" stroke-width="2" stroke-miterlimit="10" points="61.563,177.816 61.563,165.377 
			71.239,153.658 71.239,98.201 		"/>
		<circle fill="#FFFFFF" stroke="#FFFFFF" stroke-width="2" stroke-miterlimit="10" cx="61.564" cy="177.816" r="1.048"/>
	</g>
</g>
</svg>
