<?xml version="1.0" encoding="utf-8"?>
<!-- Generator: Adobe Illustrator 16.0.0, SVG Export Plug-In . SVG Version: 6.00 Build 0)  -->
<!DOCTYPE svg PUBLIC "-//W3C//DTD SVG 1.1//EN" "http://www.w3.org/Graphics/SVG/1.1/DTD/svg11.dtd">
<svg version="1.1" id="Layer_1" xmlns="http://www.w3.org/2000/svg" xmlns:xlink="http://www.w3.org/1999/xlink" x="0px" y="0px"
	 width="425.2px" height="255.12px" viewBox="0 0 425.2 255.12" enable-background="new 0 0 425.2 255.12" xml:space="preserve">
<path fill="none" stroke="#2F4F7D" stroke-width="2" stroke-miterlimit="10" d="M52.361,118.948"/>
<g>
	<path fill="#162E51" d="M51.259,182.34c0,0-3.322-0.851-4.808-0.851c-1.486,0-2.552,0-2.552,0V96.011c0,0,0.464,0.628,2.978,0.637
		c2.441,0.01,4.382-1.777,4.382-1.777V182.34z"/>
	<polygon fill="#315282" points="102.166,174.438 52.346,184.396 52.346,93.663 102.166,103.62 	"/>
	<line fill="none" stroke="#28436D" stroke-width="3" stroke-miterlimit="10" x1="51.638" y1="93.671" x2="51.638" y2="184.405"/>
	<line fill="none" stroke="#28436D" stroke-width="3" stroke-miterlimit="10" x1="43.521" y1="183.557" x2="43.521" y2="94.521"/>
	<g>
		<line fill="none" stroke="#FFFFFF" stroke-width="2" stroke-miterlimit="10" x1="62.295" y1="142.576" x2="62.295" y2="92.326"/>
		
			<ellipse fill="#FFFFFF" stroke="#FFFFFF" stroke-width="2" stroke-miterlimit="10" cx="62.296" cy="142.576" rx="1.079" ry="1.084"/>
	</g>
	<g>
		<line fill="none" stroke="#FFFFFF" stroke-width="2" stroke-miterlimit="10" x1="82.504" y1="158.973" x2="82.504" y2="181.2"/>
		
			<ellipse fill="#FFFFFF" stroke="#FFFFFF" stroke-width="2" stroke-miterlimit="10" cx="82.503" cy="158.973" rx="1.079" ry="1.085"/>
	</g>
	<g>
		<line fill="none" stroke="#FFFFFF" stroke-width="2" stroke-miterlimit="10" x1="92.235" y1="129.509" x2="92.235" y2="100.487"/>
		
			<ellipse fill="#FFFFFF" stroke="#FFFFFF" stroke-width="2" stroke-miterlimit="10" cx="92.234" cy="129.509" rx="1.079" ry="1.084"/>
	</g>
	<g>
		<polyline fill="none" stroke="#FFFFFF" stroke-width="2" stroke-miterlimit="10" points="92.461,166.863 92.461,148.507 
			82.504,139.213 82.504,97.529 		"/>
		
			<ellipse fill="#FFFFFF" stroke="#FFFFFF" stroke-width="2" stroke-miterlimit="10" cx="92.462" cy="166.863" rx="1.079" ry="1.084"/>
	</g>
	<g>
		<polyline fill="none" stroke="#FFFFFF" stroke-width="2" stroke-miterlimit="10" points="62.295,175.34 62.295,162.534 
			72.254,150.475 72.254,93.393 		"/>
		
			<ellipse fill="#FFFFFF" stroke="#FFFFFF" stroke-width="2" stroke-miterlimit="10" cx="62.296" cy="175.34" rx="1.079" ry="1.085"/>
	</g>
</g>
<g>
	<path fill="#E5A951" d="M153.315,175.433h0.483v0.536h-17.104v-0.536h0.482c0.786,0,1.367-0.241,1.742-0.723
		c0.375-0.483,0.563-0.938,0.563-1.368c0-0.429-0.09-0.857-0.268-1.287l-2.627-6.594h-12.545l-2.788,6.594
		c-0.18,0.465-0.268,0.903-0.268,1.314c0,0.41,0.196,0.857,0.589,1.341c0.393,0.481,0.983,0.723,1.769,0.723h0.43v0.536h-11.474
		v-0.536h0.483c0.823,0,1.643-0.249,2.466-0.75c0.821-0.5,1.501-1.251,2.037-2.252l12.385-28.041c1.679-3.538,2.575-5.88,2.68-7.024
		h0.483l15.924,34.958c0.536,1.037,1.215,1.814,2.038,2.331C151.617,175.174,152.457,175.433,153.315,175.433z M124.952,163.209
		h10.724l-5.2-13.189L124.952,163.209z"/>
	<path fill="#E5A951" d="M153.593,175.969v-0.428h0.515c0.658,0,1.208-0.215,1.652-0.645c0.443-0.429,0.665-0.957,0.665-1.587
		v-20.374c0-0.629-0.229-1.165-0.687-1.607c-0.458-0.443-1.001-0.666-1.63-0.666h-0.515v-0.429h11.925v0.429h-0.515
		c-0.658,0-1.216,0.215-1.674,0.644c-0.457,0.43-0.685,0.973-0.685,1.63v21.318h5.146c1.773-0.028,3.274-0.58,4.504-1.651
		c1.229-1.073,2.13-2.581,2.703-4.526h0.471l-1.672,7.893H153.593z"/>
	<path fill="#E5A951" d="M196.915,175.969h-20.203v-0.428h0.515c0.658,0,1.208-0.215,1.652-0.645
		c0.443-0.429,0.679-0.957,0.708-1.587v-20.417c-0.029-0.628-0.265-1.157-0.708-1.587c-0.444-0.429-0.994-0.644-1.652-0.644h-0.515
		v-0.429h15.098c0.772,0,1.615-0.071,2.531-0.214c0.914-0.143,1.558-0.285,1.93-0.43v6.82h-0.429v-0.386
		c0-1.258-0.343-2.245-1.03-2.96c-0.686-0.715-1.644-1.086-2.873-1.115h-6.176v10.423h4.889c0.972-0.028,1.759-0.357,2.359-0.986
		c0.601-0.629,0.901-1.43,0.901-2.401v-0.302h0.429v9.094h-0.429v-0.3c0-1.344-0.501-2.316-1.501-2.918
		c-0.515-0.312-1.087-0.471-1.716-0.471h-4.932v10.166h5.147c1.772-0.028,3.281-0.58,4.525-1.651
		c1.244-1.073,2.151-2.581,2.724-4.526h0.386L196.915,175.969z"/>
	<path fill="#E5A951" d="M228.184,175.969h-13.297v-0.428h0.471c0.544,0,0.938-0.187,1.18-0.559
		c0.244-0.371,0.365-0.679,0.365-0.922s-0.072-0.479-0.214-0.708l-4.89-7.549l-5.49,7.549c-0.172,0.258-0.258,0.509-0.258,0.751
		c0,0.243,0.121,0.543,0.365,0.9c0.242,0.357,0.635,0.537,1.179,0.537h0.472v0.428h-9.436v-0.428h0.514
		c1.372,0,2.588-0.629,3.646-1.887l7.635-10.039l-7.12-11.064c-0.429-0.572-0.973-1.037-1.63-1.396
		c-0.658-0.356-1.345-0.536-2.059-0.536h-0.516v-0.429h13.212v0.429h-0.473c-0.544,0-0.937,0.187-1.18,0.558
		c-0.243,0.372-0.364,0.68-0.364,0.923s0.07,0.479,0.215,0.707l4.547,7.035l4.588-7.035c0.145-0.229,0.215-0.464,0.215-0.707
		s-0.114-0.551-0.342-0.923c-0.23-0.371-0.616-0.558-1.158-0.558h-0.473v-0.429h9.394v0.429h-0.557c-0.716,0-1.396,0.18-2.038,0.536
		c-0.644,0.358-1.18,0.823-1.608,1.396l-6.562,9.521l7.421,11.495c0.571,0.8,1.215,1.329,1.93,1.587
		c0.714,0.258,1.314,0.387,1.801,0.387h0.516V175.969z"/>
	<path fill="#E5A951" d="M255.849,175.541h0.344v0.428h-12.61v-0.428h0.342c0.572,0,0.987-0.172,1.244-0.516
		c0.258-0.343,0.387-0.658,0.387-0.943c0-0.286-0.058-0.586-0.172-0.901l-1.674-3.946h-9.092l-1.716,3.99
		c-0.114,0.285-0.172,0.578-0.172,0.879s0.136,0.615,0.407,0.943c0.271,0.329,0.693,0.494,1.266,0.494h0.344v0.428h-8.579v-0.428
		h0.343c0.602,0,1.201-0.187,1.802-0.559c0.601-0.371,1.087-0.93,1.459-1.673l8.879-19.044c1.257-2.83,1.914-4.574,1.973-5.232
		h0.386l11.495,24.105c0.371,0.83,0.864,1.437,1.479,1.822C254.597,175.348,255.22,175.541,255.849,175.541z M235.346,167.562h7.635
		l-3.773-8.965L235.346,167.562z"/>
	<path fill="#E5A951" d="M275.408,150.233h12.052v0.429h-0.729c-0.658,0-1.208,0.201-1.651,0.601
		c-0.442,0.401-0.68,0.916-0.707,1.544v18.744c0,1.773,0.113,3.232,0.343,4.376l0.086,0.601h-0.386l-19.688-17.372v14.197
		c0.028,0.63,0.264,1.151,0.708,1.565c0.441,0.414,0.992,0.623,1.65,0.623h0.729v0.428h-12.01v-0.428h0.687
		c0.657,0,1.215-0.209,1.673-0.623c0.457-0.414,0.686-0.936,0.686-1.565V154.48c0-1.716-0.114-3.131-0.343-4.247l-0.087-0.601
		l0.387,0.044l19.646,17.284V152.85c0-0.628-0.222-1.15-0.666-1.565c-0.443-0.414-0.993-0.622-1.651-0.622h-0.728V150.233z"/>
	<path fill="#E5A951" d="M315.039,153.644c2.603,2.273,3.904,5.425,3.904,9.458c0,4.031-1.302,7.185-3.904,9.457
		c-2.602,2.273-6.204,3.41-10.808,3.41h-14.498v-0.428h0.557c0.657,0,1.216-0.229,1.674-0.688c0.456-0.457,0.7-1,0.729-1.629
		v-20.332c-0.058-0.628-0.314-1.157-0.771-1.587c-0.458-0.429-1.016-0.644-1.673-0.644h-0.515v-0.429h14.498
		C308.835,150.233,312.438,151.371,315.039,153.644z M303.716,174.254c2.688,0,4.811-0.987,6.37-2.96
		c1.558-1.974,2.337-4.704,2.337-8.192s-0.779-6.227-2.337-8.214c-1.56-1.987-3.683-2.981-6.37-2.981h-4.846v22.348H303.716z"/>
	<path fill="#E5A951" d="M330.237,151.992h-1.372v21.274c0,0.687,0.235,1.237,0.708,1.651c0.472,0.414,1.008,0.623,1.608,0.623
		h0.472v0.428h-11.796v-0.428h0.515c0.629,0,1.166-0.215,1.609-0.645c0.442-0.429,0.664-0.957,0.664-1.587v-20.417
		c0-0.628-0.222-1.157-0.664-1.587c-0.443-0.429-0.965-0.644-1.565-0.644h-0.559v-0.429h13.169c2.573,0,4.731,0.501,6.477,1.502
		c1.945,1.114,2.917,2.959,2.917,5.532c0,1.659-0.502,3.153-1.501,4.482c-1.003,1.33-2.488,2.139-4.461,2.424
		c0.771,0.257,1.536,0.744,2.294,1.459c0.758,0.714,1.366,1.443,1.822,2.187c0.916,1.63,1.873,3.125,2.875,4.482
		c0.999,1.358,1.808,2.237,2.423,2.638c0.615,0.401,1.365,0.602,2.252,0.602v0.428h-3.604c-2.373,0-4.196-0.285-5.469-0.857
		c-1.271-0.572-2.408-1.658-3.41-3.26c-1.543-2.459-2.502-4.403-2.873-5.834c-0.344-0.857-0.751-1.5-1.223-1.93
		s-0.922-0.671-1.351-0.729v-0.343h1.071c2.43-0.028,3.918-1.459,4.461-4.289c0.115-0.43,0.172-0.801,0.172-1.115
		s-0.015-0.75-0.042-1.309c-0.029-0.557-0.209-1.187-0.536-1.887c-0.33-0.701-0.751-1.208-1.266-1.523
		c-0.887-0.543-1.803-0.829-2.745-0.857C330.996,152.008,330.638,151.992,330.237,151.992z"/>
	<path fill="#E5A951" d="M347.738,175.541h0.515c0.687,0,1.272-0.222,1.759-0.666c0.485-0.443,0.729-0.979,0.729-1.608v-20.331
		c0-0.629-0.244-1.165-0.729-1.607c-0.486-0.443-1.072-0.666-1.759-0.666h-0.515v-0.429h12.182v0.429h-0.515
		c-0.657,0-1.23,0.215-1.716,0.644c-0.487,0.43-0.744,0.959-0.772,1.587v20.374c0.028,0.659,0.285,1.201,0.772,1.63
		c0.485,0.43,1.059,0.645,1.716,0.645h0.515v0.428h-12.182V175.541z"/>
	<path fill="#E5A951" d="M397.086,175.433h0.43v0.536h-15.765v-0.536h0.43c0.714,0,1.233-0.214,1.555-0.643s0.482-0.822,0.482-1.18
		s-0.072-0.733-0.214-1.126l-2.092-4.934h-11.366l-2.146,4.987c-0.143,0.358-0.214,0.724-0.214,1.099s0.17,0.77,0.51,1.18
		c0.339,0.411,0.867,0.616,1.581,0.616h0.429v0.536h-10.723v-0.536h0.429c0.751,0,1.502-0.231,2.252-0.696s1.358-1.161,1.823-2.092
		l11.098-23.805c1.573-3.539,2.395-5.719,2.468-6.541h0.482l14.369,30.132c0.464,1.037,1.08,1.796,1.849,2.279
		C395.521,175.191,396.3,175.433,397.086,175.433z M371.457,165.461h9.544l-4.718-11.207L371.457,165.461z"/>
</g>
</svg>
