<?xml version="1.0" encoding="utf-8"?>
<!-- Generator: Adobe Illustrator 16.0.0, SVG Export Plug-In . SVG Version: 6.00 Build 0)  -->
<!DOCTYPE svg PUBLIC "-//W3C//DTD SVG 1.1//EN" "http://www.w3.org/Graphics/SVG/1.1/DTD/svg11.dtd">
<svg version="1.1" id="Layer_1" xmlns="http://www.w3.org/2000/svg" xmlns:xlink="http://www.w3.org/1999/xlink" x="0px" y="0px"
	 width="425.2px" height="255.12px" viewBox="0 0 425.2 255.12" enable-background="new 0 0 425.2 255.12" xml:space="preserve">
<path fill="none" stroke="#2F4F7D" stroke-width="2" stroke-miterlimit="10" d="M207.874,98.422"/>
<g>
	<path fill="#12264A" d="M195.963,147.306c0,0-3.657-0.935-5.294-0.935c-1.636,0-2.81,0-2.81,0V52.255c0,0,0.511,0.692,3.279,0.701
		c2.687,0.01,4.825-1.958,4.825-1.958V147.306z"/>
	<polygon fill="#1F365E" points="252.014,138.606 197.159,149.572 197.159,49.669 252.014,60.632 	"/>
	<line fill="none" stroke="#325283" stroke-width="3" stroke-miterlimit="10" x1="196.379" y1="49.678" x2="196.379" y2="149.58"/>
	<line fill="none" stroke="#325283" stroke-width="3" stroke-miterlimit="10" x1="187.443" y1="148.646" x2="187.443" y2="50.613"/>
	<g>
		
			<line fill="none" stroke="#FFFFFF" stroke-width="2" stroke-miterlimit="10" x1="208.114" y1="103.525" x2="208.114" y2="48.197"/>
		
			<ellipse fill="#FFFFFF" stroke="#FFFFFF" stroke-width="2" stroke-miterlimit="10" cx="208.115" cy="103.525" rx="1.188" ry="1.194"/>
	</g>
	<g>
		
			<line fill="none" stroke="#FFFFFF" stroke-width="2" stroke-miterlimit="10" x1="230.365" y1="121.579" x2="230.365" y2="146.053"/>
		
			<ellipse fill="#FFFFFF" stroke="#FFFFFF" stroke-width="2" stroke-miterlimit="10" cx="230.363" cy="121.579" rx="1.188" ry="1.194"/>
	</g>
	<g>
		<line fill="none" stroke="#FFFFFF" stroke-width="2" stroke-miterlimit="10" x1="241.08" y1="89.137" x2="241.08" y2="57.183"/>
		
			<ellipse fill="#FFFFFF" stroke="#FFFFFF" stroke-width="2" stroke-miterlimit="10" cx="241.079" cy="89.137" rx="1.188" ry="1.194"/>
	</g>
	<g>
		<polyline fill="none" stroke="#FFFFFF" stroke-width="2" stroke-miterlimit="10" points="241.328,130.267 241.328,110.055 
			230.365,99.822 230.365,53.927 		"/>
		<path fill="#FFFFFF" stroke="#FFFFFF" stroke-width="2" stroke-miterlimit="10" d="M240.142,130.267
			c0-0.66,0.531-1.192,1.187-1.192c0.659,0,1.188,0.532,1.188,1.192s-0.529,1.196-1.188,1.196
			C240.673,131.463,240.142,130.927,240.142,130.267z"/>
	</g>
	<g>
		<polyline fill="none" stroke="#FFFFFF" stroke-width="2" stroke-miterlimit="10" points="208.114,139.601 208.114,125.5 
			219.079,112.221 219.079,49.372 		"/>
		
			<ellipse fill="#FFFFFF" stroke="#FFFFFF" stroke-width="2" stroke-miterlimit="10" cx="208.115" cy="139.601" rx="1.188" ry="1.195"/>
	</g>
</g>
<g>
	<path fill="#CCC0A8" d="M114.641,196.488l-4.166-9.68H90.352l-4.166,9.68h-7.627l18.715-41.361h6.161l18.715,41.361H114.641z
		 M92.816,180.94h15.136l-7.568-17.601L92.816,180.94z"/>
	<path fill="#CCC0A8" d="M125.063,196.488v-27.574h5.046v23.428h12.868v4.146H125.063z"/>
	<path fill="#CCC0A8" d="M146.771,196.488v-27.574h18.461v3.989h-13.533v7.588h12.751v3.95h-12.751v8.058h13.533v3.989H146.771z"/>
	<path fill="#CCC0A8" d="M182.403,182.485l10.482,14.003h-5.867l-7.47-10.325l-7.51,10.325h-5.867l10.522-14.042l-10.131-13.532
		h5.867l7.119,9.896l7.158-9.896h5.867L182.403,182.485z"/>
	<path fill="#CCC0A8" d="M216.001,196.488l-2.777-6.454h-13.416l-2.777,6.454h-5.085l12.477-27.574h4.107l12.477,27.574H216.001z
		 M201.451,186.124h10.091l-5.045-11.734L201.451,186.124z"/>
	<path fill="#CCC0A8" d="M242.479,168.914h4.733v27.574h-3.794l-14.786-19.243v19.243h-4.692v-27.574h3.754l14.785,19.203V168.914z"
		/>
	<path fill="#CCC0A8" d="M253.156,168.914h10.169c4.513,0,8.013,1.206,10.503,3.618c2.489,2.41,3.735,5.795,3.735,10.148
		c0,4.355-1.246,7.745-3.735,10.17c-2.49,2.426-5.99,3.638-10.503,3.638h-10.169V168.914z M263.013,192.381
		c6.337,0,9.506-3.231,9.506-9.7c0-6.439-3.169-9.659-9.506-9.659h-4.81v19.359H263.013z"/>
	<path fill="#CCC0A8" d="M305.763,196.488h-5.475l-4.731-8.801c-0.445-0.834-0.992-1.421-1.644-1.76
		c-0.652-0.34-1.473-0.508-2.465-0.508h-3.833v11.068h-4.967v-27.574h12.202c3.131,0,5.509,0.697,7.14,2.092
		c1.628,1.396,2.443,3.41,2.443,6.043c0,2.112-0.593,3.853-1.778,5.222c-1.187,1.369-2.863,2.264-5.025,2.68
		c1.458,0.39,2.632,1.422,3.519,3.09L305.763,196.488z M298.333,180.473c0.886-0.718,1.329-1.819,1.329-3.307
		c0-1.511-0.443-2.613-1.329-3.306c-0.888-0.689-2.283-1.035-4.187-1.035h-6.571v8.722h6.571
		C296.05,181.547,297.445,181.188,298.333,180.473z"/>
	<path fill="#CCC0A8" d="M309.831,196.488v-27.574h5.045v27.574H309.831z"/>
	<path fill="#CCC0A8" d="M353.931,196.488l-4.165-9.68h-20.123l-4.168,9.68h-7.625l18.714-41.361h6.16l18.718,41.361H353.931z
		 M332.105,180.94h15.138l-7.57-17.601L332.105,180.94z"/>
</g>
</svg>
