<?xml version="1.0" encoding="utf-8"?>
<!-- Generator: Adobe Illustrator 16.0.0, SVG Export Plug-In . SVG Version: 6.00 Build 0)  -->
<!DOCTYPE svg PUBLIC "-//W3C//DTD SVG 1.1//EN" "http://www.w3.org/Graphics/SVG/1.1/DTD/svg11.dtd">
<svg version="1.1" id="Layer_1" xmlns="http://www.w3.org/2000/svg" xmlns:xlink="http://www.w3.org/1999/xlink" x="0px" y="0px"
	 width="425.2px" height="255.12px" viewBox="0 0 425.2 255.12" enable-background="new 0 0 425.2 255.12" xml:space="preserve">
<g>
	<path fill="#162E51" d="M192.171,141.209c0,0-3.089-0.791-4.472-0.791c-1.382,0-2.374,0-2.374,0V60.92c0,0,0.432,0.584,2.77,0.592
		c2.271,0.009,4.076-1.653,4.076-1.653V141.209z"/>
	<polygon fill="#315282" points="239.516,133.86 193.181,143.122 193.181,58.737 239.516,67.997 	"/>
	<line fill="none" stroke="#28436D" stroke-width="3" stroke-miterlimit="10" x1="192.523" y1="58.745" x2="192.523" y2="143.13"/>
	<line fill="none" stroke="#28436D" stroke-width="3" stroke-miterlimit="10" x1="184.974" y1="142.341" x2="184.974" y2="59.534"/>
	<g>
		
			<line fill="none" stroke="#FFFFFF" stroke-width="2" stroke-miterlimit="10" x1="202.435" y1="104.228" x2="202.435" y2="57.493"/>
		
			<ellipse fill="#FFFFFF" stroke="#FFFFFF" stroke-width="2" stroke-miterlimit="10" cx="202.435" cy="104.228" rx="1.003" ry="1.009"/>
	</g>
	<g>
		
			<line fill="none" stroke="#FFFFFF" stroke-width="2" stroke-miterlimit="10" x1="221.229" y1="119.478" x2="221.229" y2="140.149"/>
		
			<ellipse fill="#FFFFFF" stroke="#FFFFFF" stroke-width="2" stroke-miterlimit="10" cx="221.229" cy="119.478" rx="1.003" ry="1.009"/>
	</g>
	<g>
		<line fill="none" stroke="#FFFFFF" stroke-width="2" stroke-miterlimit="10" x1="230.279" y1="92.075" x2="230.279" y2="65.083"/>
		
			<ellipse fill="#FFFFFF" stroke="#FFFFFF" stroke-width="2" stroke-miterlimit="10" cx="230.279" cy="92.075" rx="1.003" ry="1.009"/>
	</g>
	<g>
		<polyline fill="none" stroke="#FFFFFF" stroke-width="2" stroke-miterlimit="10" points="230.49,126.815 230.49,109.744 
			221.229,101.099 221.229,62.333 		"/>
		<circle fill="#FFFFFF" stroke="#FFFFFF" stroke-width="2" stroke-miterlimit="10" cx="230.491" cy="126.815" r="1.003"/>
	</g>
	<g>
		<polyline fill="none" stroke="#FFFFFF" stroke-width="2" stroke-miterlimit="10" points="202.435,134.698 202.435,122.789 
			211.697,111.573 211.697,58.485 		"/>
		
			<ellipse fill="#FFFFFF" stroke="#FFFFFF" stroke-width="2" stroke-miterlimit="10" cx="202.435" cy="134.698" rx="1.003" ry="1.009"/>
	</g>
</g>
<g>
	<path fill="#E5A951" d="M111.192,192.025h0.508v0.563H93.709v-0.563h0.508c0.826,0,1.438-0.254,1.833-0.761
		c0.395-0.508,0.592-0.986,0.592-1.438c0-0.451-0.095-0.902-0.282-1.354l-2.764-6.936H80.399l-2.933,6.936
		c-0.189,0.489-0.282,0.95-0.282,1.383c0,0.432,0.207,0.902,0.62,1.41c0.413,0.507,1.034,0.761,1.861,0.761h0.452v0.563H68.048
		v-0.563h0.508c0.866,0,1.729-0.262,2.594-0.789c0.864-0.526,1.579-1.315,2.143-2.369l13.028-29.495
		c1.766-3.722,2.708-6.186,2.819-7.39h0.508l16.75,36.772c0.564,1.091,1.278,1.908,2.144,2.452
		C109.406,191.753,110.289,192.025,111.192,192.025z M81.357,179.167h11.28l-5.47-13.873L81.357,179.167z"/>
	<path fill="#E5A951" d="M111.484,192.589v-0.449h0.542c0.692,0,1.271-0.227,1.737-0.679c0.466-0.45,0.7-1.006,0.7-1.669v-21.431
		c0-0.662-0.241-1.226-0.722-1.691c-0.482-0.466-1.053-0.7-1.715-0.7h-0.542v-0.451h12.543v0.451h-0.542
		c-0.692,0-1.279,0.226-1.76,0.677c-0.481,0.452-0.721,1.023-0.721,1.715v22.424h5.414c1.865-0.029,3.444-0.61,4.737-1.737
		c1.293-1.129,2.241-2.715,2.844-4.761h0.495l-1.759,8.302H111.484z"/>
	<path fill="#E5A951" d="M157.055,192.589h-21.251v-0.449h0.541c0.692,0,1.271-0.227,1.738-0.679
		c0.466-0.45,0.714-1.006,0.744-1.669v-21.477c-0.03-0.66-0.278-1.217-0.744-1.669c-0.467-0.451-1.046-0.677-1.738-0.677h-0.541
		v-0.451h15.881c0.812,0,1.699-0.075,2.662-0.225c0.962-0.15,1.639-0.301,2.031-0.452v7.174h-0.451v-0.405
		c0-1.323-0.361-2.362-1.083-3.114c-0.722-0.752-1.73-1.142-3.022-1.173h-6.497v10.964h5.143c1.022-0.03,1.85-0.376,2.481-1.037
		c0.632-0.662,0.948-1.504,0.948-2.526v-0.317h0.451v9.565h-0.451v-0.315c0-1.413-0.527-2.437-1.58-3.069
		c-0.542-0.328-1.143-0.495-1.805-0.495h-5.188v10.693h5.414c1.864-0.029,3.451-0.61,4.76-1.737
		c1.309-1.129,2.263-2.715,2.865-4.761h0.406L157.055,192.589z"/>
	<path fill="#E5A951" d="M189.945,192.589h-13.987v-0.449h0.496c0.572,0,0.986-0.196,1.241-0.588
		c0.256-0.391,0.384-0.714,0.384-0.97s-0.076-0.503-0.225-0.745l-5.144-7.94l-5.775,7.94c-0.18,0.271-0.271,0.535-0.271,0.79
		c0,0.256,0.127,0.571,0.384,0.947c0.255,0.376,0.669,0.565,1.24,0.565h0.497v0.449h-9.926v-0.449h0.541
		c1.443,0,2.723-0.662,3.835-1.985l8.031-10.56l-7.489-11.639c-0.452-0.602-1.023-1.091-1.715-1.468
		c-0.691-0.375-1.414-0.564-2.165-0.564h-0.542v-0.45h13.897v0.45h-0.497c-0.572,0-0.986,0.196-1.241,0.587
		c-0.256,0.392-0.382,0.715-0.382,0.971s0.074,0.504,0.225,0.744l4.782,7.4l4.827-7.4c0.151-0.24,0.226-0.488,0.226-0.744
		s-0.12-0.579-0.359-0.971c-0.242-0.391-0.648-0.587-1.219-0.587h-0.496v-0.45h9.88v0.45h-0.585c-0.752,0-1.467,0.189-2.143,0.564
		c-0.678,0.377-1.242,0.866-1.692,1.468l-6.903,10.016l7.806,12.092c0.602,0.841,1.279,1.397,2.03,1.669
		c0.751,0.271,1.383,0.407,1.895,0.407h0.542V192.589z"/>
	<path fill="#E5A951" d="M219.046,192.14h0.361v0.449h-13.265v-0.449h0.36c0.602,0,1.038-0.182,1.308-0.543
		c0.271-0.36,0.407-0.692,0.407-0.992c0-0.301-0.061-0.616-0.181-0.948l-1.76-4.15h-9.564l-1.804,4.197
		c-0.121,0.3-0.181,0.607-0.181,0.924s0.143,0.647,0.429,0.992c0.286,0.347,0.729,0.521,1.331,0.521h0.362v0.449h-9.024v-0.449
		h0.361c0.632,0,1.263-0.196,1.895-0.588c0.632-0.391,1.143-0.978,1.535-1.76l9.339-20.032c1.323-2.977,2.014-4.812,2.075-5.504
		h0.406l12.091,25.356c0.391,0.873,0.909,1.511,1.557,1.917C217.729,191.936,218.385,192.14,219.046,192.14z M197.479,183.747h8.031
		l-3.97-9.431L197.479,183.747z"/>
	<path fill="#E5A951" d="M239.62,165.519h12.678v0.451h-0.768c-0.692,0-1.271,0.211-1.737,0.632
		c-0.465,0.422-0.715,0.963-0.744,1.624v19.717c0,1.865,0.12,3.399,0.361,4.603l0.09,0.632h-0.405l-20.709-18.273v14.934
		c0.029,0.663,0.277,1.212,0.744,1.647c0.465,0.436,1.044,0.655,1.736,0.655h0.768v0.449h-12.633v-0.449h0.722
		c0.691,0,1.278-0.22,1.76-0.655c0.48-0.436,0.721-0.984,0.721-1.647v-19.851c0-1.806-0.12-3.294-0.36-4.468l-0.091-0.632
		l0.406,0.046l20.665,18.182v-14.844c0-0.66-0.233-1.21-0.7-1.646c-0.467-0.436-1.045-0.654-1.737-0.654h-0.766V165.519z"/>
	<path fill="#E5A951" d="M281.308,169.105c2.737,2.392,4.106,5.706,4.106,9.949c0,4.24-1.369,7.557-4.106,9.947
		c-2.736,2.392-6.526,3.587-11.368,3.587h-15.251v-0.449h0.586c0.691,0,1.279-0.241,1.761-0.724c0.479-0.48,0.736-1.052,0.767-1.713
		v-21.388c-0.062-0.66-0.331-1.217-0.812-1.669c-0.482-0.451-1.068-0.677-1.76-0.677h-0.542v-0.451h15.251
		C274.781,165.519,278.571,166.715,281.308,169.105z M269.396,190.785c2.827,0,5.061-1.038,6.701-3.113
		c1.638-2.076,2.458-4.948,2.458-8.617c0-3.67-0.82-6.55-2.458-8.641c-1.641-2.09-3.874-3.136-6.701-3.136H264.3v23.507H269.396z"/>
	<path fill="#E5A951" d="M297.294,167.368h-1.443v22.379c0,0.722,0.248,1.302,0.745,1.737c0.496,0.436,1.061,0.655,1.692,0.655
		h0.496v0.449h-12.408v-0.449h0.541c0.662,0,1.227-0.227,1.693-0.679c0.465-0.45,0.698-1.006,0.698-1.669v-21.477
		c0-0.66-0.233-1.217-0.698-1.669c-0.467-0.451-1.016-0.677-1.646-0.677h-0.588v-0.451h13.853c2.706,0,4.977,0.527,6.812,1.58
		c2.046,1.172,3.068,3.112,3.068,5.819c0,1.745-0.528,3.316-1.579,4.715c-1.055,1.399-2.617,2.25-4.692,2.55
		c0.812,0.27,1.615,0.782,2.413,1.534c0.797,0.751,1.437,1.519,1.917,2.3c0.963,1.715,1.97,3.287,3.023,4.716
		c1.051,1.429,1.901,2.353,2.549,2.774s1.437,0.633,2.369,0.633v0.449h-3.791c-2.496,0-4.414-0.3-5.752-0.901
		c-1.338-0.603-2.533-1.744-3.587-3.429c-1.623-2.587-2.632-4.632-3.022-6.137c-0.361-0.902-0.79-1.578-1.286-2.03
		s-0.97-0.706-1.421-0.768v-0.36h1.127c2.556-0.029,4.121-1.534,4.692-4.512c0.121-0.452,0.181-0.842,0.181-1.173
		s-0.016-0.789-0.044-1.377c-0.031-0.585-0.22-1.248-0.563-1.984c-0.348-0.737-0.79-1.271-1.332-1.603
		c-0.933-0.571-1.896-0.872-2.888-0.901C298.093,167.385,297.716,167.368,297.294,167.368z"/>
	<path fill="#E5A951" d="M315.703,192.14h0.542c0.722,0,1.338-0.233,1.85-0.701c0.511-0.466,0.768-1.029,0.768-1.691v-21.386
		c0-0.662-0.257-1.226-0.768-1.691c-0.512-0.466-1.128-0.7-1.85-0.7h-0.542v-0.451h12.813v0.451h-0.541
		c-0.691,0-1.294,0.226-1.805,0.677c-0.513,0.452-0.783,1.009-0.812,1.669v21.432c0.029,0.693,0.3,1.264,0.812,1.714
		c0.511,0.452,1.113,0.679,1.805,0.679h0.541v0.449h-12.813V192.14z"/>
	<path fill="#E5A951" d="M367.611,192.025h0.452v0.563H351.48v-0.563h0.452c0.751,0,1.298-0.226,1.636-0.676
		c0.338-0.451,0.507-0.865,0.507-1.241s-0.075-0.771-0.225-1.185l-2.2-5.189h-11.956l-2.257,5.246
		c-0.15,0.377-0.225,0.762-0.225,1.155c0,0.395,0.179,0.81,0.536,1.241c0.356,0.433,0.912,0.648,1.663,0.648h0.451v0.563h-11.279
		v-0.563h0.451c0.79,0,1.579-0.243,2.368-0.732s1.429-1.222,1.918-2.2l11.674-25.04c1.654-3.723,2.519-6.016,2.596-6.881h0.508
		l15.114,31.695c0.488,1.091,1.136,1.89,1.944,2.397C365.966,191.771,366.784,192.025,367.611,192.025z M340.652,181.536h10.04
		l-4.963-11.788L340.652,181.536z"/>
</g>
</svg>
